<?xml version="1.0" standalone="no"?><!DOCTYPE svg PUBLIC "-//W3C//DTD SVG 1.1//EN" "http://www.w3.org/Graphics/SVG/1.1/DTD/svg11.dtd"><svg class="icon" height="512" viewBox="0 0 1024 1024" version="1.1" xmlns="http://www.w3.org/2000/svg"><path d="M231.285109 231.287667h701.787484c7.750521 0 14.032598 6.285147 14.032598 14.032598v28.074405c0 7.753591-6.282077 14.032598-14.032598 14.032598H231.285109c-7.750521 0-14.035668-6.28003-14.035668-14.032598V245.320265c0-7.747451 6.285147-14.032598 14.035668-14.032598zM259.354398 483.926618h673.719218c7.750521 0 14.032598 6.285147 14.032598 14.038737v28.068266c0 7.753591-6.282077 14.038738-14.032598 14.038738H259.354398c-7.750521 0-14.032598-6.285147-14.032598-14.038738v-28.068266c-0.001023-7.753591 6.282077-14.038738 14.032598-14.038737zM90.925361 736.572732h842.147232c7.750521 0 14.032598 6.282077 14.032598 14.035668v28.071335c0 7.750521-6.282077 14.032598-14.032598 14.032598H90.925361c-7.750521 0-14.032598-6.282077-14.032598-14.032598V750.6084c0-7.753591 6.282077-14.035668 14.032598-14.035668z" fill="#231815" /></svg>