<?xml version="1.0" encoding="utf-8"?>
<!-- Generator: Adobe Illustrator 18.0.0, SVG Export Plug-In . SVG Version: 6.00 Build 0)  -->
<!DOCTYPE svg PUBLIC "-//W3C//DTD SVG 1.1//EN" "http://www.w3.org/Graphics/SVG/1.1/DTD/svg11.dtd">
<svg version="1.1" id="Layer_1" xmlns="http://www.w3.org/2000/svg" xmlns:xlink="http://www.w3.org/1999/xlink" x="0px" y="0px"
	 width="30px" height="30px" viewBox="0 0 30 30" enable-background="new 0 0 30 30" xml:space="preserve">
<path fill="#4D4D4F" d="M23.7,10.3H6.4c-2.2,0-4,1.8-4,4v0.4c0,2.2,1.8,4,4,4h2.8l0.7,1.9c0.1,0.2,0.2,0.4,0.5,0.4h0.2
	c0.3,0,0.5-0.1,0.5-0.4l0.3-0.6l0.7,0.7c0.1,0.1,0.3,0.1,0.4,0.1s0.3,0,0.4-0.1c0.1-0.1,0.2-0.3,0.2-0.4s-0.1-0.3-0.2-0.4l-0.7-0.7
	l0.6-0.2c0.1,0,0.2-0.1,0.3-0.3h10.4c2.2,0,4-1.8,4-4v-0.4C27.6,12,25.9,10.3,23.7,10.3z M26.4,14.3v0.4c0,1.5-1.2,2.8-2.8,2.8h-4.1
	v-5.9h4.1C25.1,11.5,26.4,12.8,26.4,14.3z M18.4,11.5v5.9h-5.5l-1.3-0.6v-5.4H18.4z M11.5,18.2l-0.4,0.1c-0.1,0-0.1,0-0.2,0.1h-0.1
	l-0.2,0.2l-0.1,0.4L10,17.5L11.5,18.2z M8.9,15.8C8.9,15.8,8.8,15.8,8.9,15.8l-0.2,0l0,0c-0.1,0.1-0.1,0.1-0.1,0.3v0.3l0.3,1.1H6.3
	l0,0c-1.5-0.1-2.6-1.3-2.6-2.8v-0.4c0-1.5,1.2-2.8,2.8-2.8h4.1v4.8l-1.2-0.5C9.2,15.7,9,15.7,8.9,15.8z"/>
</svg>
